<svg viewBox="0 0 800 160" xmlns="http://www.w3.org/2000/svg">
  <defs>
    <style>
      .header { fill: #0066cc; stroke: #000; stroke-width: 1; }
      .header-text { fill: white; font-weight: bold; font-size: 13px; }
      .row-alt { fill: #f5f5f5; stroke: #000; stroke-width: 1; }
      .row-white { fill: white; stroke: #000; stroke-width: 1; }
      .cell-text { font-size: 12px; }
      .cell-text-bold { font-size: 12px; font-weight: bold; }
    </style>
  </defs>
  
  <!-- Header -->
  <rect class="header" x="10" y="10" width="150" height="35"/>
  <text class="header-text" x="85" y="33" text-anchor="middle">Category</text>
  
  <rect class="header" x="160" y="10" width="100" height="35"/>
  <text class="header-text" x="210" y="33" text-anchor="middle">Files</text>
  
  <rect class="header" x="260" y="10" width="120" height="35"/>
  <text class="header-text" x="320" y="33" text-anchor="middle">Lines</text>
  
  <rect class="header" x="380" y="10" width="410" height="35"/>
  <text class="header-text" x="585" y="33" text-anchor="middle">Description</text>
  
  <!-- SQL Scripts -->
  <rect class="row-white" x="10" y="45" width="150" height="30"/>
  <text class="cell-text-bold" x="85" y="65" text-anchor="middle">SQL Scripts</text>
  
  <rect class="row-white" x="160" y="45" width="100" height="30"/>
  <text class="cell-text" x="210" y="65" text-anchor="middle">14</text>
  
  <rect class="row-white" x="260" y="45" width="120" height="30"/>
  <text class="cell-text" x="320" y="65" text-anchor="middle">5,081</text>
  
  <rect class="row-white" x="380" y="45" width="410" height="30"/>
  <text class="cell-text" x="585" y="65" text-anchor="middle">Database, tables, features, views, search, ML, agent, monitoring</text>
  
  <!-- Notebook -->
  <rect class="row-alt" x="10" y="75" width="150" height="30"/>
  <text class="cell-text-bold" x="85" y="95" text-anchor="middle">Notebook</text>
  
  <rect class="row-alt" x="160" y="75" width="100" height="30"/>
  <text class="cell-text" x="210" y="95" text-anchor="middle">1</text>
  
  <rect class="row-alt" x="260" y="75" width="120" height="30"/>
  <text class="cell-text" x="320" y="95" text-anchor="middle">645</text>
  
  <rect class="row-alt" x="380" y="75" width="410" height="30"/>
  <text class="cell-text" x="585" y="95" text-anchor="middle">ML model training with Snowpark (31 cells)</text>
  
  <!-- Documentation -->
  <rect class="row-white" x="10" y="105" width="150" height="30"/>
  <text class="cell-text-bold" x="85" y="125" text-anchor="middle">Documentation</text>
  
  <rect class="row-white" x="160" y="105" width="100" height="30"/>
  <text class="cell-text" x="210" y="125" text-anchor="middle">6</text>
  
  <rect class="row-white" x="260" y="105" width="120" height="30"/>
  <text class="cell-text" x="320" y="125" text-anchor="middle">2,524</text>
  
  <rect class="row-white" x="380" y="105" width="410" height="30"/>
  <text class="cell-text" x="585" y="125" text-anchor="middle">Setup guides, feature store guide, questions, gotchas</text>
</svg>
